<?xml version="1.0" encoding="utf-8"?><svg fill="none" height="100%" width="100%" viewBox="0 0 500 500" xmlns:xlink="http://www.w3.org/1999/xlink" xmlns="http://www.w3.org/2000/svg"><defs /><g transform="matrix(1.155,0,0,1.155,51.544,52.533)" id="Circle"><g id="Group 1" transform="matrix(1,0,0,1,168.508,168.508)"><path fill="#3d53ff" fill-opacity="1" d="M168.258,0C168.258,92.926,92.926,168.258,-0.001,168.258C-92.928,168.258,-168.258,92.926,-168.258,0C-168.258,-92.927,-92.928,-168.258,-0.001,-168.258C92.926,-168.258,168.258,-92.927,168.258,0Z" /></g></g><g id="Middle Page"><g transform="translate(227.461,246.517)"><animateTransform repeatCount="indefinite" type="translate" attributeName="transform" dur="3s" begin="0s" calcMode="spline" values="227.461 246.517; 227.461 246.517; 46.461 246.517; 46.461 246.517" keyTimes="0; 0.055556; 0.222222; 1" keySplines="0 0 1 1; 0.377 0 0.667 1; 0 0 1 1" fill="freeze" /><g transform="scale(1,1)"><animateTransform repeatCount="indefinite" type="scale" attributeName="transform" dur="3s" begin="0s" calcMode="spline" values="1 1; 1 1; 0.69 0.69; 0.69 0.69" keyTimes="0; 0.069444; 0.236111; 1" keySplines="0 0 1 1; 0.392 0 0.598 1; 0 0 1 1" fill="freeze" /><g transform="translate(-91.789,-134.239)"><g id="Group 1" transform="matrix(1,0,0,1,115.102,134.239)"><path fill="#ffffff" fill-opacity="1" d="M78.779,133.989C78.779,133.989,-78.779,133.989,-78.779,133.989C-85.826,133.989,-91.539,128.275,-91.539,121.227C-91.539,121.227,-91.539,-121.228,-91.539,-121.228C-91.539,-128.276,-85.826,-133.989,-78.779,-133.989C-78.779,-133.989,78.779,-133.989,78.779,-133.989C85.827,-133.989,91.539,-128.276,91.539,-121.228C91.539,-121.228,91.539,121.227,91.539,121.227C91.539,128.275,85.827,133.989,78.779,133.989Z"><animate repeatCount="indefinite" attributeName="fill" dur="3s" begin="0s" fill="freeze" values="#ffffff; #ffffff; #eaeaea; #eaeaea" keyTimes="0; 0.055556; 0.222222; 1" keySplines="0 0 1 1; 0.333 0 0.667 1; 0 0 1 1" calcMode="spline" /></path></g></g></g></g></g><g opacity="1" id="Middle Text"><animate repeatCount="indefinite" attributeName="opacity" dur="3s" begin="0s" fill="freeze" values="1; 1; 1; 0; 0" keyTimes="0; 0.055556; 0.138889; 0.222222; 1" keySplines="0 0 1 1; 0.333 0 0.667 1; 0.333 0 0.667 1; 0 0 1 1" calcMode="spline" /><g transform="translate(249.339,244.683)"><animateTransform repeatCount="indefinite" type="translate" attributeName="transform" dur="3s" begin="0s" calcMode="spline" values="249.339 244.683; 249.339 244.683; 65.339 244.683; 65.339 244.683" keyTimes="0; 0.055556; 0.222222; 1" keySplines="0 0 1 1; 0.333 0 0.667 1; 0 0 1 1" fill="freeze" /><g transform="scale(1,1)"><animateTransform repeatCount="indefinite" type="scale" attributeName="transform" dur="3s" begin="0s" calcMode="spline" values="1 1; 1 1; 0.75 0.75; 0.75 0.75" keyTimes="0; 0.069444; 0.236111; 1" keySplines="0 0 1 1; 0.333 0 0.667 1; 0 0 1 1" fill="freeze" /><g transform="translate(-64.911,-107)"><g id="Group 8" transform="matrix(1,0,0,1,64.577,207.155)"><path fill="#3b82f6" fill-opacity="1" d="M60.995,6.594C60.995,6.594,-60.995,6.594,-60.995,6.594C-62.652,6.594,-63.995,5.251,-63.995,3.594C-63.995,3.594,-63.995,-3.594,-63.995,-3.594C-63.995,-5.251,-62.652,-6.594,-60.995,-6.594C-60.995,-6.594,60.995,-6.594,60.995,-6.594C62.652,-6.594,63.995,-5.251,63.995,-3.594C63.995,-3.594,63.995,3.594,63.995,3.594C63.995,5.251,62.652,6.594,60.995,6.594Z" /></g><g id="Group 7" transform="matrix(1,0,0,1,64.911,175.155)"><path fill="#3b82f6" fill-opacity="1" d="M61.661,6.594C61.661,6.594,-61.661,6.594,-61.661,6.594C-63.318,6.594,-64.661,5.251,-64.661,3.594C-64.661,3.594,-64.661,-3.594,-64.661,-3.594C-64.661,-5.251,-63.318,-6.594,-61.661,-6.594C-61.661,-6.594,61.661,-6.594,61.661,-6.594C63.318,-6.594,64.661,-5.251,64.661,-3.594C64.661,-3.594,64.661,3.594,64.661,3.594C64.661,5.251,63.318,6.594,61.661,6.594Z" /></g><g id="Group 6" transform="matrix(1,0,0,1,64.577,80.155)"><path fill="#3b82f6" fill-opacity="1" d="M60.995,6.594C60.995,6.594,-60.995,6.594,-60.995,6.594C-62.652,6.594,-63.995,5.251,-63.995,3.594C-63.995,3.594,-63.995,-3.594,-63.995,-3.594C-63.995,-5.251,-62.652,-6.594,-60.995,-6.594C-60.995,-6.594,60.995,-6.594,60.995,-6.594C62.652,-6.594,63.995,-5.251,63.995,-3.594C63.995,-3.594,63.995,3.594,63.995,3.594C63.995,5.251,62.652,6.594,60.995,6.594Z" /></g><g id="Group 5" transform="matrix(1,0,0,1,97.911,17.489)"><path fill="#3b82f6" fill-opacity="1" d="M27.661,6.594C27.661,6.594,-27.661,6.594,-27.661,6.594C-29.318,6.594,-30.661,5.251,-30.661,3.594C-30.661,3.594,-30.661,-3.594,-30.661,-3.594C-30.661,-5.251,-29.318,-6.594,-27.661,-6.594C-27.661,-6.594,27.661,-6.594,27.661,-6.594C29.318,-6.594,30.661,-5.251,30.661,-3.594C30.661,-3.594,30.661,3.594,30.661,3.594C30.661,5.251,29.318,6.594,27.661,6.594Z" /></g><g id="Group 4" transform="matrix(1,0,0,1,98.244,42.822)"><path fill="#3b82f6" fill-opacity="1" d="M28.327,6.594C28.327,6.594,-28.327,6.594,-28.327,6.594C-29.985,6.594,-31.327,5.251,-31.327,3.594C-31.327,3.594,-31.327,-3.594,-31.327,-3.594C-31.327,-5.251,-29.985,-6.594,-28.327,-6.594C-28.327,-6.594,28.327,-6.594,28.327,-6.594C29.984,-6.594,31.327,-5.251,31.327,-3.594C31.327,-3.594,31.327,3.594,31.327,3.594C31.327,5.251,29.984,6.594,28.327,6.594Z" /></g><g id="Group 3" transform="matrix(1,0,0,1,64.744,111.488)"><path fill="#3b82f6" fill-opacity="1" d="M60.827,6.594C60.827,6.594,-60.827,6.594,-60.827,6.594C-62.485,6.594,-63.827,5.251,-63.827,3.594C-63.827,3.594,-63.827,-3.594,-63.827,-3.594C-63.827,-5.251,-62.485,-6.594,-60.827,-6.594C-60.827,-6.594,60.827,-6.594,60.827,-6.594C62.484,-6.594,63.827,-5.251,63.827,-3.594C63.827,-3.594,63.827,3.594,63.827,3.594C63.827,5.251,62.484,6.594,60.827,6.594Z" /></g><g id="Group 2" transform="matrix(1,0,0,1,64.911,142.822)"><path fill="#3b82f6" fill-opacity="1" d="M61.661,6.594C61.661,6.594,-61.661,6.594,-61.661,6.594C-63.318,6.594,-64.661,5.25,-64.661,3.594C-64.661,3.594,-64.661,-3.594,-64.661,-3.594C-64.661,-5.252,-63.318,-6.594,-61.661,-6.594C-61.661,-6.594,61.661,-6.594,61.661,-6.594C63.318,-6.594,64.661,-5.252,64.661,-3.594C64.661,-3.594,64.661,3.594,64.661,3.594C64.661,5.25,63.318,6.594,61.661,6.594Z" /></g><g id="Group 1" transform="matrix(1,0,0,1,27.993,27.784)"><path fill="#3b82f6" fill-opacity="1" d="M20.939,27.533C20.939,27.533,-20.939,27.533,-20.939,27.533C-24.581,27.533,-27.534,24.581,-27.534,20.939C-27.534,20.939,-27.534,-20.939,-27.534,-20.939C-27.534,-24.581,-24.581,-27.533,-20.939,-27.533C-20.939,-27.533,20.939,-27.533,20.939,-27.533C24.581,-27.533,27.534,-24.581,27.534,-20.939C27.534,-20.939,27.534,20.939,27.534,20.939C27.534,24.581,24.581,27.533,20.939,27.533Z" /></g></g></g></g></g><g id="Left Page 1"><g transform="translate(38.623,247.073)"><animateTransform repeatCount="indefinite" type="translate" attributeName="transform" dur="3s" begin="0s" calcMode="spline" values="64.898 247.073; -93.102 247.073; -93.102 247.073" keyTimes="0; 0.166667; 1" keySplines="0 0 1 1; 0 0 1 1" fill="freeze" /><g transform="scale(1,0.931) translate(-64.303,-101.087)"><g id="Group 1" transform="matrix(1,0,0,1,64.303,101.087)"><path fill="#eaeaea" fill-opacity="1" d="M51.293,100.837C51.293,100.837,-51.292,100.837,-51.292,100.837C-58.34,100.837,-64.053,95.123,-64.053,88.075C-64.053,88.075,-64.053,-88.076,-64.053,-88.076C-64.053,-95.124,-58.34,-100.837,-51.292,-100.837C-51.292,-100.837,51.293,-100.837,51.293,-100.837C58.341,-100.837,64.054,-95.124,64.054,-88.076C64.054,-88.076,64.054,88.075,64.054,88.075C64.054,95.123,58.341,100.837,51.293,100.837Z" /></g></g></g></g><g visibility="hidden" id="Right Page 2"><animate repeatCount="indefinite" begin="0s" calcMode="discrete" dur="3s" values="hidden; visible; visible" keyTimes="0; 0.056; 1" attributeName="visibility" /><g transform="translate(575.776,252.017)"><animateTransform repeatCount="indefinite" type="translate" attributeName="transform" dur="3s" begin="0s" calcMode="spline" values="575.776 252.017; 575.776 252.017; 435.776 247.017; 435.776 247.017" keyTimes="0; 0.138889; 0.305556; 1" keySplines="0 0 1 1; 0 0 1 1; 0 0 1 1" fill="freeze" /><g transform="scale(1,0.881) translate(-64.304,-101.087)"><g id="Group 9" transform="matrix(1,0,0,1,64.304,101.087)"><path fill="#eaeaea" fill-opacity="1" d="M51.292,100.837C51.292,100.837,-51.293,100.837,-51.293,100.837C-58.341,100.837,-64.054,95.124,-64.054,88.076C-64.054,88.076,-64.054,-88.076,-64.054,-88.076C-64.054,-95.123,-58.341,-100.837,-51.293,-100.837C-51.293,-100.837,51.292,-100.837,51.292,-100.837C58.34,-100.837,64.054,-95.123,64.054,-88.076C64.054,-88.076,64.054,88.076,64.054,88.076C64.054,95.124,58.34,100.837,51.292,100.837Z" /></g></g></g></g><g id="Right Page 1"><g transform="translate(435.776,247)"><animateTransform repeatCount="indefinite" type="translate" attributeName="transform" dur="3s" begin="0s" calcMode="spline" values="435.776 247; 435.776 247; 250.776 247.017; 250.776 247.017" keyTimes="0; 0.083333; 0.25; 1" keySplines="0 0 1 1; 0 0 1 1; 0 0 1 1" fill="freeze" /><g transform="scale(1,0.941)"><animateTransform repeatCount="indefinite" type="scale" attributeName="transform" dur="3s" begin="0s" calcMode="spline" values="1 0.941; 1 0.941; 1.38 1.38; 1.38 1.38" keyTimes="0; 0.083333; 0.25; 1" keySplines="0 0 1 1; 0 0 1 1; 0 0 1 1" fill="freeze" /><g transform="translate(-64.304,-101.087)"><g id="Group 1" transform="matrix(1.017,0,0,0.966,64.304,101.087)"><path fill="#eaeaea" fill-opacity="1" d="M51.292,100.837C51.292,100.837,-51.293,100.837,-51.293,100.837C-58.341,100.837,-64.054,95.124,-64.054,88.076C-64.054,88.076,-64.054,-88.076,-64.054,-88.076C-64.054,-95.124,-58.341,-100.837,-51.293,-100.837C-51.293,-100.837,51.292,-100.837,51.292,-100.837C58.34,-100.837,64.054,-95.124,64.054,-88.076C64.054,-88.076,64.054,88.076,64.054,88.076C64.054,95.124,58.34,100.837,51.292,100.837Z"><animate repeatCount="indefinite" attributeName="fill" dur="3s" begin="0s" fill="freeze" values="#eaeaea; #eaeaea; #ffffff; #ffffff" keyTimes="0; 0.083333; 0.25; 1" keySplines="0 0 1 1; 0 0 1 1; 0 0 1 1" calcMode="spline" /></path></g></g></g></g></g><g id="Right Page 1"><g transform="translate(435.776,247)"><animateTransform repeatCount="indefinite" type="translate" attributeName="transform" dur="3s" begin="0s" calcMode="spline" values="435.776 247; 435.776 247; 250.776 247.017; 250.776 247.017" keyTimes="0; 0.083333; 0.25; 1" keySplines="0 0 1 1; 0 0 1 1; 0 0 1 1" fill="freeze" /><g transform="scale(1,0.941)"><animateTransform repeatCount="indefinite" type="scale" attributeName="transform" dur="3s" begin="0s" calcMode="spline" values="1 0.941; 1 0.941; 1.38 1.38; 1.38 1.38" keyTimes="0; 0.083333; 0.25; 1" keySplines="0 0 1 1; 0 0 1 1; 0 0 1 1" fill="freeze" /><g transform="translate(-64.304,-101.087)"><g opacity="0" visibility="hidden" id="Line 7"><animate repeatCount="indefinite" begin="0s" calcMode="discrete" dur="3s" values="hidden; visible; visible" keyTimes="0; 0.139; 1" attributeName="visibility" /><animate repeatCount="indefinite" attributeName="opacity" dur="3s" begin="0s" fill="freeze" values="0; 0; 1; 1" keyTimes="0; 0.25; 0.333333; 1" keySplines="0 0 1 1; 0 0 1 1; 0 0 1 1" calcMode="spline" /><g transform="translate(18.539,170.581)"><g transform="scale(0,0.939)"><animateTransform repeatCount="indefinite" type="scale" attributeName="transform" dur="3s" begin="0s" calcMode="spline" values="0 0.939; 0 0.939; 0.939 0.939; 0.939 0.939" keyTimes="0; 0.25; 0.333333; 1" keySplines="0 0 1 1; 0 0 1 1; 0 0 1 1" fill="freeze" /><g transform="translate(-0.501,-155.958)"><g id="Line 7" transform="matrix(1,0,0,1,48.66,155.958)"><path fill="#3b82f6" fill-opacity="1" d="M45.159,4.963C45.159,4.963,-45.159,4.963,-45.159,4.963C-46.817,4.963,-48.159,3.619,-48.159,1.963C-48.159,1.963,-48.159,-1.963,-48.159,-1.963C-48.159,-3.62,-46.817,-4.963,-45.159,-4.963C-45.159,-4.963,45.159,-4.963,45.159,-4.963C46.816,-4.963,48.159,-3.62,48.159,-1.963C48.159,-1.963,48.159,1.963,48.159,1.963C48.159,3.619,46.816,4.963,45.159,4.963Z" /></g></g></g></g></g></g></g></g></g><g id="Right Page 1"><g transform="translate(435.776,247)"><animateTransform repeatCount="indefinite" type="translate" attributeName="transform" dur="3s" begin="0s" calcMode="spline" values="435.776 247; 435.776 247; 250.776 247.017; 250.776 247.017" keyTimes="0; 0.083333; 0.25; 1" keySplines="0 0 1 1; 0 0 1 1; 0 0 1 1" fill="freeze" /><g transform="scale(1,0.941)"><animateTransform repeatCount="indefinite" type="scale" attributeName="transform" dur="3s" begin="0s" calcMode="spline" values="1 0.941; 1 0.941; 1.38 1.38; 1.38 1.38" keyTimes="0; 0.083333; 0.25; 1" keySplines="0 0 1 1; 0 0 1 1; 0 0 1 1" fill="freeze" /><g transform="translate(-64.304,-101.087)"><g opacity="0" visibility="hidden" id="Line 6"><animate repeatCount="indefinite" begin="0s" calcMode="discrete" dur="3s" values="hidden; visible; visible" keyTimes="0; 0.139; 1" attributeName="visibility" /><animate repeatCount="indefinite" attributeName="opacity" dur="3s" begin="0s" fill="freeze" values="0; 0; 1; 1" keyTimes="0; 0.236111; 0.319444; 1" keySplines="0 0 1 1; 0 0 1 1; 0 0 1 1" calcMode="spline" /><g transform="translate(18.303,147.972)"><g transform="scale(0,0.939)"><animateTransform repeatCount="indefinite" type="scale" attributeName="transform" dur="3s" begin="0s" calcMode="spline" values="0 0.939; 0 0.939; 0.939 0.939; 0.939 0.939" keyTimes="0; 0.236111; 0.319444; 1" keySplines="0 0 1 1; 0 0 1 1; 0 0 1 1" fill="freeze" /><g transform="translate(-0.25,-131.876)"><g id="Line 6" transform="matrix(1,0,0,1,48.911,131.876)"><path fill="#3b82f6" fill-opacity="1" d="M45.661,4.963C45.661,4.963,-45.661,4.963,-45.661,4.963C-47.318,4.963,-48.661,3.62,-48.661,1.963C-48.661,1.963,-48.661,-1.963,-48.661,-1.963C-48.661,-3.619,-47.318,-4.963,-45.661,-4.963C-45.661,-4.963,45.661,-4.963,45.661,-4.963C47.318,-4.963,48.661,-3.619,48.661,-1.963C48.661,-1.963,48.661,1.963,48.661,1.963C48.661,3.62,47.318,4.963,45.661,4.963Z" /></g></g></g></g></g></g></g></g></g><g id="Right Page 1"><g transform="translate(435.776,247)"><animateTransform repeatCount="indefinite" type="translate" attributeName="transform" dur="3s" begin="0s" calcMode="spline" values="435.776 247; 435.776 247; 250.776 247.017; 250.776 247.017" keyTimes="0; 0.083333; 0.25; 1" keySplines="0 0 1 1; 0 0 1 1; 0 0 1 1" fill="freeze" /><g transform="scale(1,0.941)"><animateTransform repeatCount="indefinite" type="scale" attributeName="transform" dur="3s" begin="0s" calcMode="spline" values="1 0.941; 1 0.941; 1.38 1.38; 1.38 1.38" keyTimes="0; 0.083333; 0.25; 1" keySplines="0 0 1 1; 0 0 1 1; 0 0 1 1" fill="freeze" /><g transform="translate(-64.304,-101.087)"><g opacity="0" visibility="hidden" id="Line 5"><animate repeatCount="indefinite" begin="0s" calcMode="discrete" dur="3s" values="hidden; visible; visible" keyTimes="0; 0.139; 1" attributeName="visibility" /><animate repeatCount="indefinite" attributeName="opacity" dur="3s" begin="0s" fill="freeze" values="0; 0; 1; 1" keyTimes="0; 0.222222; 0.305556; 1" keySplines="0 0 1 1; 0 0 1 1; 0 0 1 1" calcMode="spline" /><g transform="translate(18.303,125.128)"><g transform="scale(0,0.939)"><animateTransform repeatCount="indefinite" type="scale" attributeName="transform" dur="3s" begin="0s" calcMode="spline" values="0 0.939; 0 0.939; 0.939 0.939; 0.939 0.939" keyTimes="0; 0.222222; 0.305556; 1" keySplines="0 0 1 1; 0 0 1 1; 0 0 1 1" fill="freeze" /><g transform="translate(-0.25,-107.543)"><g id="Line 5" transform="matrix(1,0,0,1,48.911,107.543)"><path fill="#3b82f6" fill-opacity="1" d="M45.661,4.962C45.661,4.962,-45.661,4.962,-45.661,4.962C-47.318,4.962,-48.661,3.619,-48.661,1.962C-48.661,1.962,-48.661,-1.962,-48.661,-1.962C-48.661,-3.619,-47.318,-4.962,-45.661,-4.962C-45.661,-4.962,45.661,-4.962,45.661,-4.962C47.318,-4.962,48.661,-3.619,48.661,-1.962C48.661,-1.962,48.661,1.962,48.661,1.962C48.661,3.619,47.318,4.962,45.661,4.962Z" /></g></g></g></g></g></g></g></g></g><g id="Right Page 1"><g transform="translate(435.776,247)"><animateTransform repeatCount="indefinite" type="translate" attributeName="transform" dur="3s" begin="0s" calcMode="spline" values="435.776 247; 435.776 247; 250.776 247.017; 250.776 247.017" keyTimes="0; 0.083333; 0.25; 1" keySplines="0 0 1 1; 0 0 1 1; 0 0 1 1" fill="freeze" /><g transform="scale(1,0.941)"><animateTransform repeatCount="indefinite" type="scale" attributeName="transform" dur="3s" begin="0s" calcMode="spline" values="1 0.941; 1 0.941; 1.38 1.38; 1.38 1.38" keyTimes="0; 0.083333; 0.25; 1" keySplines="0 0 1 1; 0 0 1 1; 0 0 1 1" fill="freeze" /><g transform="translate(-64.304,-101.087)"><g opacity="0" visibility="hidden" id="Line 4"><animate repeatCount="indefinite" begin="0s" calcMode="discrete" dur="3s" values="hidden; visible; visible" keyTimes="0; 0.139; 1" attributeName="visibility" /><animate repeatCount="indefinite" attributeName="opacity" dur="3s" begin="0s" fill="freeze" values="0; 0; 1; 1" keyTimes="0; 0.208333; 0.291667; 1" keySplines="0 0 1 1; 0 0 1 1; 0 0 1 1" calcMode="spline" /><g transform="translate(18.774,102.99)"><g transform="scale(0,0.939)"><animateTransform repeatCount="indefinite" type="scale" attributeName="transform" dur="3s" begin="0s" calcMode="spline" values="0 0.939; 0 0.939; 0.939 0.939; 0.939 0.939" keyTimes="0; 0.208333; 0.291667; 1" keySplines="0 0 1 1; 0 0 1 1; 0 0 1 1" fill="freeze" /><g transform="translate(-0.752,-83.963)"><g id="Line 4" transform="matrix(1,0,0,1,48.786,83.963)"><path fill="#3b82f6" fill-opacity="1" d="M45.034,4.962C45.034,4.962,-45.034,4.962,-45.034,4.962C-46.692,4.962,-48.034,3.619,-48.034,1.962C-48.034,1.962,-48.034,-1.962,-48.034,-1.962C-48.034,-3.619,-46.692,-4.962,-45.034,-4.962C-45.034,-4.962,45.034,-4.962,45.034,-4.962C46.691,-4.962,48.034,-3.619,48.034,-1.962C48.034,-1.962,48.034,1.962,48.034,1.962C48.034,3.619,46.691,4.962,45.034,4.962Z" /></g></g></g></g></g></g></g></g></g><g id="Right Page 1"><g transform="translate(435.776,247)"><animateTransform repeatCount="indefinite" type="translate" attributeName="transform" dur="3s" begin="0s" calcMode="spline" values="435.776 247; 435.776 247; 250.776 247.017; 250.776 247.017" keyTimes="0; 0.083333; 0.25; 1" keySplines="0 0 1 1; 0 0 1 1; 0 0 1 1" fill="freeze" /><g transform="scale(1,0.941)"><animateTransform repeatCount="indefinite" type="scale" attributeName="transform" dur="3s" begin="0s" calcMode="spline" values="1 0.941; 1 0.941; 1.38 1.38; 1.38 1.38" keyTimes="0; 0.083333; 0.25; 1" keySplines="0 0 1 1; 0 0 1 1; 0 0 1 1" fill="freeze" /><g transform="translate(-64.304,-101.087)"><g opacity="0" visibility="hidden" id="Line 3"><animate repeatCount="indefinite" begin="0s" calcMode="discrete" dur="3s" values="hidden; visible; visible" keyTimes="0; 0.139; 1" attributeName="visibility" /><animate repeatCount="indefinite" attributeName="opacity" dur="3s" begin="0s" fill="freeze" values="0; 0; 1; 1" keyTimes="0; 0.194444; 0.277778; 1" keySplines="0 0 1 1; 0 0 1 1; 0 0 1 1" calcMode="spline" /><g transform="translate(18.539,80.853)"><g transform="scale(0,0.939)"><animateTransform repeatCount="indefinite" type="scale" attributeName="transform" dur="3s" begin="0s" calcMode="spline" values="0 0.939; 0 0.939; 0.939 0.939; 0.939 0.939" keyTimes="0; 0.194444; 0.277778; 1" keySplines="0 0 1 1; 0 0 1 1; 0 0 1 1" fill="freeze" /><g transform="translate(-0.501,-60.383)"><g id="Line 3" transform="matrix(1,0,0,1,48.66,60.383)"><path fill="#3b82f6" fill-opacity="1" d="M45.159,4.963C45.159,4.963,-45.159,4.963,-45.159,4.963C-46.817,4.963,-48.159,3.62,-48.159,1.963C-48.159,1.963,-48.159,-1.963,-48.159,-1.963C-48.159,-3.62,-46.817,-4.963,-45.159,-4.963C-45.159,-4.963,45.159,-4.963,45.159,-4.963C46.816,-4.963,48.159,-3.62,48.159,-1.963C48.159,-1.963,48.159,1.963,48.159,1.963C48.159,3.62,46.816,4.963,45.159,4.963Z" /></g></g></g></g></g></g></g></g></g><g id="Right Page 1"><g transform="translate(435.776,247)"><animateTransform repeatCount="indefinite" type="translate" attributeName="transform" dur="3s" begin="0s" calcMode="spline" values="435.776 247; 435.776 247; 250.776 247.017; 250.776 247.017" keyTimes="0; 0.083333; 0.25; 1" keySplines="0 0 1 1; 0 0 1 1; 0 0 1 1" fill="freeze" /><g transform="scale(1,0.941)"><animateTransform repeatCount="indefinite" type="scale" attributeName="transform" dur="3s" begin="0s" calcMode="spline" values="1 0.941; 1 0.941; 1.38 1.38; 1.38 1.38" keyTimes="0; 0.083333; 0.25; 1" keySplines="0 0 1 1; 0 0 1 1; 0 0 1 1" fill="freeze" /><g transform="translate(-64.304,-101.087)"><g opacity="0" visibility="hidden" id="Line 2"><animate repeatCount="indefinite" begin="0s" calcMode="discrete" dur="3s" values="hidden; visible; visible" keyTimes="0; 0.139; 1" attributeName="visibility" /><animate repeatCount="indefinite" attributeName="opacity" dur="3s" begin="0s" fill="freeze" values="0; 0; 1; 1" keyTimes="0; 0.180556; 0.263889; 1" keySplines="0 0 1 1; 0 0 1 1; 0 0 1 1" calcMode="spline" /><g transform="translate(65.972,54.476)"><g transform="scale(0,0.939)"><animateTransform repeatCount="indefinite" type="scale" attributeName="transform" dur="3s" begin="0s" calcMode="spline" values="0 0.939; 0 0.939; 0.939 0.939; 0.939 0.939" keyTimes="0; 0.180556; 0.263889; 1" keySplines="0 0 1 1; 0 0 1 1; 0 0 1 1" fill="freeze" /><g transform="translate(-50.421,-32.288)"><g id="Line 2" transform="matrix(1,0,0,1,73.996,32.288)"><path fill="#3b82f6" fill-opacity="1" d="M20.576,4.962C20.576,4.962,-20.576,4.962,-20.576,4.962C-22.234,4.962,-23.576,3.619,-23.576,1.962C-23.576,1.962,-23.576,-1.962,-23.576,-1.962C-23.576,-3.62,-22.234,-4.962,-20.576,-4.962C-20.576,-4.962,20.576,-4.962,20.576,-4.962C22.233,-4.962,23.576,-3.62,23.576,-1.962C23.576,-1.962,23.576,1.962,23.576,1.962C23.576,3.619,22.233,4.962,20.576,4.962Z" /></g></g></g></g></g></g></g></g></g><g id="Right Page 1"><g transform="translate(435.776,247)"><animateTransform repeatCount="indefinite" type="translate" attributeName="transform" dur="3s" begin="0s" calcMode="spline" values="435.776 247; 435.776 247; 250.776 247.017; 250.776 247.017" keyTimes="0; 0.083333; 0.25; 1" keySplines="0 0 1 1; 0 0 1 1; 0 0 1 1" fill="freeze" /><g transform="scale(1,0.941)"><animateTransform repeatCount="indefinite" type="scale" attributeName="transform" dur="3s" begin="0s" calcMode="spline" values="1 0.941; 1 0.941; 1.38 1.38; 1.38 1.38" keyTimes="0; 0.083333; 0.25; 1" keySplines="0 0 1 1; 0 0 1 1; 0 0 1 1" fill="freeze" /><g transform="translate(-64.304,-101.087)"><g opacity="0" visibility="hidden" id="Line 1"><animate repeatCount="indefinite" begin="0s" calcMode="discrete" dur="3s" values="hidden; visible; visible" keyTimes="0; 0.139; 1" attributeName="visibility" /><animate repeatCount="indefinite" attributeName="opacity" dur="3s" begin="0s" fill="freeze" values="0; 0; 1; 1" keyTimes="0; 0.166667; 0.25; 1" keySplines="0 0 1 1; 0 0 1 1; 0 0 1 1" calcMode="spline" /><g transform="translate(65.64,36.578)"><g transform="scale(0,0.939)"><animateTransform repeatCount="indefinite" type="scale" attributeName="transform" dur="3s" begin="0s" calcMode="spline" values="0 0.939; 0 0.939; 0.939 0.939; 0.939 0.939" keyTimes="0; 0.166667; 0.25; 1" keySplines="0 0 1 1; 0 0 1 1; 0 0 1 1" fill="freeze" /><g transform="translate(-50.672,-13.223)"><g id="Line 1" transform="matrix(1,0,0,1,73.746,13.223)"><path fill="#3b82f6" fill-opacity="1" d="M20.074,4.963C20.074,4.963,-20.074,4.963,-20.074,4.963C-21.732,4.963,-23.074,3.62,-23.074,1.963C-23.074,1.963,-23.074,-1.963,-23.074,-1.963C-23.074,-3.62,-21.732,-4.963,-20.074,-4.963C-20.074,-4.963,20.074,-4.963,20.074,-4.963C21.731,-4.963,23.074,-3.62,23.074,-1.963C23.074,-1.963,23.074,1.963,23.074,1.963C23.074,3.62,21.731,4.963,20.074,4.963Z" /></g></g></g></g></g></g></g></g></g><g id="Right Page 1"><g transform="translate(435.776,247)"><animateTransform repeatCount="indefinite" type="translate" attributeName="transform" dur="3s" begin="0s" calcMode="spline" values="435.776 247; 435.776 247; 250.776 247.017; 250.776 247.017" keyTimes="0; 0.083333; 0.25; 1" keySplines="0 0 1 1; 0 0 1 1; 0 0 1 1" fill="freeze" /><g transform="scale(1,0.941)"><animateTransform repeatCount="indefinite" type="scale" attributeName="transform" dur="3s" begin="0s" calcMode="spline" values="1 0.941; 1 0.941; 1.38 1.38; 1.38 1.38" keyTimes="0; 0.083333; 0.25; 1" keySplines="0 0 1 1; 0 0 1 1; 0 0 1 1" fill="freeze" /><g transform="translate(-64.304,-101.087)"><g visibility="hidden" id="Profile"><animate repeatCount="indefinite" begin="0s" calcMode="discrete" dur="3s" values="hidden; visible; visible" keyTimes="0; 0.125; 1" attributeName="visibility" /><g transform="translate(37.904,43.851)"><g transform="scale(0,0)"><animateTransform repeatCount="indefinite" type="scale" attributeName="transform" dur="3s" begin="0s" calcMode="spline" values="0 0; 0 0; 0.939 0.939; 0.939 0.939" keyTimes="0; 0.152778; 0.236111; 1" keySplines="0 0 1 1; 0 0 1 1; 0 0 1 1" fill="freeze" /><g transform="translate(-21.129,-20.971)"><g id="Profile" transform="matrix(1,0,0,1,21.129,20.971)"><path fill="#3b82f6" fill-opacity="1" d="M14.126,20.72C14.126,20.72,-14.126,20.72,-14.126,20.72C-17.769,20.72,-20.721,17.768,-20.721,14.126C-20.721,14.126,-20.721,-14.126,-20.721,-14.126C-20.721,-17.768,-17.769,-20.72,-14.126,-20.72C-14.126,-20.72,14.126,-20.72,14.126,-20.72C17.768,-20.72,20.721,-17.768,20.721,-14.126C20.721,-14.126,20.721,14.126,20.721,14.126C20.721,17.768,17.768,20.72,14.126,20.72Z" /></g></g></g></g></g></g></g></g></g><g id="Handle"><g transform="translate(648.829,532.045)"><animateTransform repeatCount="indefinite" type="translate" attributeName="transform" dur="3s" begin="0s" calcMode="spline" values="648.829 532.045; 648.829 532.045; 220.829 170.045; 220.829 170.045; 284.829 168.045; 284.829 168.045; 216.829 246.045; 280.829 246.045; 280.829 246.045; 222.829 322.045; 286.829 324.045; 286.829 324.045; 650.829 536.045; 650.829 536.045" keyTimes="0; 0.277778; 0.361111; 0.416666; 0.472222; 0.5; 0.541667; 0.597222; 0.638889; 0.694444; 0.777778; 0.805556; 0.861111; 1" keySplines="0 0 1 1; 0.333 0 0.394 1; 0 0 1 1; 0.216 0 0 1; 0 0 1 1; 0.375 0 0.057 1; 0.981 0 0.826 1; 0 0 1 1; 0.333 0 0.04 1; 0.871 0 0.667 1; 0 0 1 1; 0.923 0 0.667 1; 0 0 1 1" fill="freeze" /><g transform="scale(1,1) translate(30.17,31.17)"><g id="Group 1" transform="matrix(1,0,0,1,38.207,23.72)"><path fill="#c4c0c0" fill-opacity="1" d="M46.352,42.076C46.352,42.076,-23.804,-22.35,-23.804,-22.35C-25.025,-23.47,-26.922,-23.389,-28.044,-22.169C-28.044,-22.169,-36.836,-12.594,-36.836,-12.594C-37.957,-11.373,-37.877,-9.476,-36.656,-8.355C-36.656,-8.355,33.501,56.07,33.501,56.07C34.721,57.191,36.62,57.11,37.74,55.889C37.74,55.889,46.533,46.314,46.533,46.314C47.654,45.095,47.573,43.196,46.352,42.076Z" /></g></g></g></g><g id="Handle"><g transform="translate(648.829,532.045)"><animateTransform repeatCount="indefinite" type="translate" attributeName="transform" dur="3s" begin="0s" calcMode="spline" values="648.829 532.045; 648.829 532.045; 220.829 170.045; 220.829 170.045; 284.829 168.045; 284.829 168.045; 216.829 246.045; 280.829 246.045; 280.829 246.045; 222.829 322.045; 286.829 324.045; 286.829 324.045; 650.829 536.045; 650.829 536.045" keyTimes="0; 0.277778; 0.361111; 0.416666; 0.472222; 0.5; 0.541667; 0.597222; 0.638889; 0.694444; 0.777778; 0.805556; 0.861111; 1" keySplines="0 0 1 1; 0.333 0 0.394 1; 0 0 1 1; 0.216 0 0 1; 0 0 1 1; 0.375 0 0.057 1; 0.981 0 0.826 1; 0 0 1 1; 0.333 0 0.04 1; 0.871 0 0.667 1; 0 0 1 1; 0.923 0 0.667 1; 0 0 1 1" fill="freeze" /><g transform="scale(1,1) translate(30.17,31.17)"><g transform="matrix(1,0,0,1,-117.335,-117.31)" id="Magnifying Glass"><g id="Group 1" transform="matrix(1,0,0,1,86,86)"><path stroke-miterlimit="10" stroke-linejoin="miter" stroke-linecap="butt" stroke-width="13" stroke-opacity="1" stroke="#bcb8b8" d="M53.5,0C53.5,29.547,29.547,53.5,0,53.5C-29.547,53.5,-53.5,29.547,-53.5,0C-53.5,-29.547,-29.547,-53.5,0,-53.5C29.547,-53.5,53.5,-29.547,53.5,0Z" /></g></g></g></g></g><g transform="matrix(1,0,0,1,250,250)" visibility="hidden" id="Check Right"><animate repeatCount="indefinite" begin="0s" calcMode="discrete" dur="3s" values="hidden; visible; visible" keyTimes="0; 0.806; 1" attributeName="visibility" /><g id="Shape 1"><path stroke-miterlimit="4" stroke-linejoin="miter" stroke-linecap="butt" stroke-width="15" stroke-opacity="1" stroke="#00dab9" d="M-52.5,11.5"><set fill="freeze" dur="0.041666666666666664s" begin="2.5s" to="M-52.5,11.5" attributeName="d" /><set fill="freeze" dur="0.041666666666666664s" begin="2.5416666666666665s" to="M-52.5,11.5C-52.5,11.5,-44.191,19.309,-35.008,27.938" attributeName="d" /><set fill="freeze" dur="0.041666666666666664s" begin="2.5833333333333335s" to="M-52.5,11.5C-52.5,11.5,-29.2,33.397,-17.517,44.376" attributeName="d" /><set fill="freeze" dur="0.041666666666666664s" begin="2.625s" to="M-52.5,11.5C-52.5,11.5,-11,50.5,-11,50.5C-11,50.5,-7.18,45.958,-1.305,38.975" attributeName="d" /><set fill="freeze" dur="0.041666666666666664s" begin="2.6666666666666665s" to="M-52.5,11.5C-52.5,11.5,-11,50.5,-11,50.5C-11,50.5,0.428,36.914,14.146,20.606" attributeName="d" /><set fill="freeze" dur="0.041666666666666664s" begin="2.7083333333333335s" to="M-52.5,11.5C-52.5,11.5,-11,50.5,-11,50.5C-11,50.5,10.262,25.223,29.597,2.237" attributeName="d" /><set fill="freeze" dur="0.041666666666666664s" begin="2.75s" to="M-52.5,11.5C-52.5,11.5,-11,50.5,-11,50.5C-11,50.5,24.027,8.86,45.049,-16.131" attributeName="d" /><set fill="freeze" dur="0.041666666666666664s" begin="2.7916666666666665s" to="M-52.5,11.5C-52.5,11.5,-11,50.5,-11,50.5C-11,50.5,60.5,-34.5,60.5,-34.5" attributeName="d" /></path></g></g><g opacity="1" id="Check Middle"><animate repeatCount="indefinite" attributeName="opacity" dur="3s" begin="0s" fill="freeze" values="1; 1; 0; 0" keyTimes="0; 0.055556; 0.305556; 1" keySplines="0 0 1 1; 0.333 0 0.667 1; 0 0 1 1" calcMode="spline" /><g transform="translate(250,250)"><animateTransform repeatCount="indefinite" type="translate" attributeName="transform" dur="3s" begin="0s" calcMode="spline" values="250 250; 250 250; 52 250; 52 250" keyTimes="0; 0.055556; 0.222222; 1" keySplines="0 0 1 1; 0.333 0 0.667 1; 0 0 1 1" fill="freeze" /><g transform="scale(1,1)"><animateTransform repeatCount="indefinite" type="scale" attributeName="transform" dur="3s" begin="0s" calcMode="spline" values="1 1; 1 1; 0.69 0.69; 0.69 0.69" keyTimes="0; 0.083333; 0.25; 1" keySplines="0 0 1 1; 0.333 0 0.134 1; 0 0 1 1" fill="freeze" /><g transform="translate(0,0)"><g id="Shape 1"><path stroke-miterlimit="4" stroke-linejoin="miter" stroke-linecap="butt" stroke-width="15" stroke-opacity="1" stroke="#00dab9" d="M-52.5,11.5C-52.5,11.5,-11,50.5,-11,50.5C-11,50.5,60.5,-34.5,60.5,-34.5" /></g></g></g></g></g></svg>